<svg xmlns="http://www.w3.org/2000/svg" id="Layer_1" viewBox="0 0 640.63 138.9"><defs><style>.cls-1{fill:#024225;}</style></defs><path class="cls-1" d="M131.14,63.62H54.39c-5.37,0-9.98,3.07-12.28,8.06l-23.41,41.06c-3.45,8.83,2.69,18.42,12.28,18.42h76.74c5.37,0,9.98-3.07,12.28-8.06l23.41-41.06c3.45-8.83-2.69-18.42-12.28-18.42h0Z"></path><path class="cls-1" d="M30.99,60.17c2.69-5.76,8.44-9.59,14.97-9.59h72.14c2.69,0,3.84-3.45,2.3-5.37L78.95,9.14c-6.52-5.76-17.27-5.76-24.17,0L9.5,49.04c-3.07,2.69-4.99,6.14-4.99,9.21h0v37.99c0,3.07,4.22,4.22,5.76,1.15l20.72-37.6v.38Z"></path><path class="cls-1" d="M180.64,42.14h22.26c12.66,0,19.57,7.29,19.57,17.65s-3.84,12.28-9.59,14.2c6.91,1.92,11.9,8.06,11.9,15.35s-8.06,18.03-20.34,18.03h-24.17V42.14h.38ZM191.77,69.76h9.98c6.52,0,10.36-3.45,10.36-9.21s-3.84-9.21-10.36-9.21h-9.59v18.42s-.38,0-.38,0ZM191.77,98.16h11.51c6.52,0,11.13-3.45,11.13-9.21s-3.84-9.59-10.36-9.59h-11.51v18.8h-.77ZM252.4,99.31c6.52,0,12.66-4.99,12.66-14.58s-5.76-14.2-12.66-14.2-12.66,4.99-12.66,14.2,6.14,14.58,12.66,14.58ZM252.4,61.32c13.43,0,23.41,9.98,23.41,23.79s-9.59,23.79-23.41,23.79-23.41-9.98-23.41-23.79,9.59-23.79,23.41-23.79ZM293.07,107.37h-10.36V40.98h10.36v66.77-.38ZM313.41,107.37h-10.36v-44.51h10.36v44.51ZM301.13,47.12c0-3.84,3.07-6.91,6.91-6.91s6.91,3.07,6.91,6.91-3.07,6.91-6.91,6.91-6.91-3.07-6.91-6.91ZM320.32,110.05l9.59-2.69c.77,5.76,5.37,9.59,11.51,9.59s12.66-4.22,12.66-13.43v-4.99c-1.92,3.45-6.52,6.52-13.05,6.52-11.9,0-20.72-9.21-20.72-21.87s8.44-21.87,20.72-21.87,11.51,3.07,13.05,6.52v-5.76h10.36v40.67c0,11.9-6.14,23.41-22.64,23.41s-20.34-7.29-21.49-16.12ZM342.95,96.62c6.91,0,11.51-4.99,11.51-12.66s-4.99-12.66-11.51-12.66-11.9,4.99-11.9,12.66,4.99,12.66,11.9,12.66ZM384.4,107.37h-10.36v-44.51h9.98v5.76c2.69-4.99,8.44-6.91,13.05-6.91s11.13,2.69,13.43,8.06c3.45-5.76,8.83-8.06,14.58-8.06s15.73,5.37,15.73,17.27v28.78h-10.36v-27.24c0-5.37-2.69-9.21-8.83-9.21s-9.21,4.22-9.21,9.98v26.48h-10.36v-27.24c0-5.37-2.69-9.21-8.83-9.21s-9.21,4.22-9.21,9.98v26.48h.38v-.38ZM448.09,95.09c0-8.06,5.76-12.28,13.43-13.43l11.51-1.92c2.69-.38,3.45-1.92,3.45-3.07,0-3.84-2.69-6.91-8.44-6.91s-8.83,3.45-9.21,8.06l-9.59-2.3c.77-8.06,8.06-14.58,18.8-14.58s18.8,8.06,18.8,16.5v22.26c0,3.84.38,6.52.38,6.91h-9.98c0-.38-.38-2.3-.38-5.76-2.3,3.45-6.52,6.91-14.2,6.91-9.21.38-14.97-6.14-14.97-13.05l.38.38ZM465.36,100.46c6.14,0,11.13-3.07,11.13-11.51v-2.3l-11.9,1.92c-3.45.38-6.14,2.3-6.14,6.14.38,3.07,2.69,5.76,6.91,5.76ZM506.42,125.02h-10.36v-62.16h10.36v6.14c2.3-3.84,7.29-6.91,14.58-6.91,13.05,0,20.72,9.98,20.72,23.41s-8.44,23.79-21.1,23.79-11.51-2.69-13.43-6.14v22.26h-.38l-.38-.38ZM530.6,85.11c0-8.44-4.99-14.2-12.28-14.2s-12.28,5.76-12.28,14.2,5.37,14.2,12.28,14.2,12.28-5.76,12.28-14.2ZM558.61,125.02h-10.36v-62.16h10.36v6.14c2.3-3.84,7.29-6.91,14.58-6.91,13.05,0,20.72,9.98,20.72,23.41s-8.44,23.79-21.1,23.79-11.51-2.69-13.43-6.14v22.26h-.38l-.38-.38ZM582.78,85.11c0-8.44-4.99-14.2-12.28-14.2s-12.28,5.76-12.28,14.2,5.37,14.2,12.28,14.2,12.28-5.76,12.28-14.2ZM596.98,95.09c0-8.06,5.76-12.28,13.43-13.43l11.51-1.92c2.69-.38,3.45-1.92,3.45-3.07,0-3.84-2.69-6.91-8.44-6.91s-8.83,3.45-9.21,8.06l-9.59-2.3c.77-8.06,8.06-14.58,18.8-14.58s18.8,8.06,18.8,16.5v22.26c0,3.84.38,6.52.38,6.91h-9.98c0-.38-.38-2.3-.38-5.76-2.3,3.45-6.52,6.91-14.2,6.91-9.21.38-14.97-6.14-14.97-13.05l.38.38ZM614.25,100.46c6.14,0,11.13-3.07,11.13-11.51v-2.3l-11.9,1.92c-3.45.38-6.14,2.3-6.14,6.14.38,3.07,2.69,5.76,6.91,5.76h0Z"></path></svg>